<svg xmlns="http://www.w3.org/2000/svg" viewBox="0 0 24 24" width="24px" height="24px"><defs><polygon id="path-1" points="0 0 24 0 24 24 0 24"/></defs><g id="Symbols" stroke="none" stroke-width="1" fill="none" fill-rule="evenodd"><g id="icon/ic_edit"><g id="ic_edit"><mask id="mask-2" fill="white"><use xmlns:xlink="http://www.w3.org/1999/xlink" xlink:href="#path-1"/></mask><g id="Shape"/><g mask="url(#mask-2)" fill-rule="nonzero"><polygon id="Shape" fill-opacity="0" fill="#FFFFFF" points="0 0 24 0 24 24 0 24"/><g id="Union" transform="translate(3.000000, 3.000000)" fill="#333333"><g id="path0_fill-link"><path d="M5.5,0 C5.77614,0 6,0.223846 6,0.5 L6,1.5 C6,1.77615 5.77614,2 5.5,2 L2,2 L2,16 L16,16 L16,12.5 C16,12.2238 16.2239,12 16.5,12 L17.5,12 C17.7761,12 18,12.2238 18,12.5 L18,16 C18,17.1046 17.1046,18 16,18 L2,18 C0.895432,18 0,17.1046 0,16 L0,2 C0,0.895416 0.895432,0 2,0 L5.5,0 Z M13.6066,1.70709 C13.9971,1.31659 14.6303,1.31659 15.0208,1.70709 L16.435,3.12131 C16.8255,3.51184 16.8255,4.14502 16.435,4.53552 L15.7279,5.24265 L12.8995,2.41422 L13.6066,1.70709 Z M5.22837,10.0853 L12.1924,3.12131 L15.0208,5.94974 L8.05679,12.9138 C7.98699,12.9836 7.89809,13.0312 7.8013,13.0505 L6.62453,13.2859 L5.4306,13.5247 C4.94708,13.6213 4.52078,13.195 4.61748,12.7115 L4.85628,11.5176 L5.09163,10.3409 C5.11099,10.244 5.15857,10.1552 5.22837,10.0853 Z M3.66235,12.2339 L3.6974,12.2129 L3.6904,12.248 L3.66235,12.2339 Z M5.9292,14.4447 L5.90818,14.4798 L5.89416,14.4517 L5.9292,14.4447 Z" id="path0_fill"/></g></g></g></g></g></g></svg>