<svg xmlns="http://www.w3.org/2000/svg" width="24px" height="24px" viewBox="0 0 24 24" version="1.1" style="background:#FFFFFF"><title stroke="none" fill="#000000" stroke-width="1px">icon/ic_location</title><desc stroke="none" fill="#000000" stroke-width="1px">Created with Sketch.</desc><defs></defs><g id="Symbols" stroke="none" stroke-width="1px" fill="none" fill-rule="evenodd"><g id="icon/ic_location" stroke="none" fill="none" stroke-width="1px"><g id="ic_location" stroke="none" fill="none" stroke-width="1px"><rect id="boundary" x="0" y="0" width="24" height="24" stroke="none" fill="none" stroke-width="1px"></rect><path d="M12,9 C12.5522847,9 13,9.44771525 13,10 C13,10.5522847 12.5522847,11 12,11 C11.4477153,11 11,10.5522847 11,10 C11,9.44771525 11.4477153,9 12,9 L12,9 Z M12,7 C10.3431458,7 9,8.34314575 9,10 C9,11.6568542 10.3431458,13 12,13 C13.6568542,13 15,11.6568542 15,10 C15,8.34314575 13.6568542,7 12,7 Z" id="Shape" fill="#333333" fill-rule="nonzero" stroke="none" stroke-width="1px"></path><path d="M12,4 C15.3137085,4 18,6.6862915 18,10 C18,11.21 17.2,14 12,19.21 C6.8,14 6,11.21 6,10 C6,6.6862915 8.6862915,4 12,4 L12,4 Z M12,2 C7.581722,2 4,5.581722 4,10 C4,12.8133333 6.43333333,16.59 11.3,21.33 L11.3,21.33 C11.6888435,21.7111429 12.3111565,21.7111429 12.7,21.33 C17.5666667,16.59 20,12.8133333 20,10 C20,5.581722 16.418278,2 12,2 Z" id="Shape" fill="#333333" fill-rule="nonzero" stroke="none" stroke-width="1px"></path></g></g></g></svg>