<svg xmlns="http://www.w3.org/2000/svg" width="24px" height="24px" viewBox="0 0 24 24" version="1.1" style="background:#FFFFFF"><title stroke="none" fill="#000000" stroke-width="1px">icon/ic_neighborhood</title><desc stroke="none" fill="#000000" stroke-width="1px">Created with Sketch.</desc><defs></defs><g id="Symbols" stroke="none" stroke-width="1px" fill="none" fill-rule="evenodd"><g id="icon/ic_neighborhood" stroke="none" fill="none" stroke-width="1px"><g id="Group-81" stroke="none" fill="none" stroke-width="1px"><rect id="outside" stroke="#333333" stroke-width="2px" x="4" y="8" width="8" height="11" rx="2" fill="none"></rect><path d="M12,18.9976974 L19,18.9976974 C19.5522847,18.9976974 20,18.5499821 20,17.9976974 L20,7.13007812 C20,6.77881527 19.8157012,6.45330845 19.5144958,6.2725852 L16.5144958,4.4725852 C16.1978134,4.28257577 15.8021866,4.28257577 15.4855042,4.4725852 L12.4855042,6.2725852 C12.1842988,6.45330845 12,6.77881527 12,7.13007812 L12,18.9976974 Z" id="outside" stroke="#333333" stroke-width="2px" fill="none"></path><rect id="Rectangle-75" x="0" y="0" width="24" height="24" stroke="none" fill="none" stroke-width="1px"></rect><rect id="line" fill="#333333" x="7" y="11" width="2" height="2" rx="0.5" stroke="none" stroke-width="1px"></rect><rect id="line" fill="#333333" x="7" y="14" width="2" height="2" rx="0.5" stroke="none" stroke-width="1px"></rect><rect id="line" fill="#333333" x="15" y="11" width="2" height="2" rx="0.5" stroke="none" stroke-width="1px"></rect><rect id="line" fill="#333333" x="15" y="14" width="2" height="2" rx="0.5" stroke="none" stroke-width="1px"></rect><rect id="line" fill="#333333" x="15" y="8" width="2" height="2" rx="0.5" stroke="none" stroke-width="1px"></rect></g></g></g></svg>