<svg xmlns="http://www.w3.org/2000/svg" width="24px" height="24px" viewBox="0 0 24 24" version="1.1" style="background:#FFFFFF"><title stroke="none" fill="#000000" stroke-width="1px">icon/ic_parking_details</title><desc stroke="none" fill="#000000" stroke-width="1px">Created with Sketch.</desc><defs></defs><g id="Symbols" stroke="none" stroke-width="1px" fill="none" fill-rule="evenodd"><g id="icon/ic_parking_details" stroke="none" fill="none" stroke-width="1px"><rect id="boundry" x="0" y="0" width="24" height="24" stroke="none" fill="none" stroke-width="1px"></rect><circle id="Oval" stroke="#333333" stroke-width="2px" cx="12" cy="12" r="8" fill="none"></circle><rect id="Rectangle-3" fill="#333333" x="9" y="8" width="2" height="8" rx="1" stroke="none" stroke-width="1px"></rect><rect id="Rectangle-3" fill="#333333" x="13" y="8" width="2" height="5" rx="1" stroke="none" stroke-width="1px"></rect><path d="M10,8 L14,8 L14,9.5 L14,9.5 C14,9.77614237 13.7761424,10 13.5,10 L10.5,10 L10.5,10 C10.2238576,10 10,9.77614237 10,9.5 L10,8 Z" id="Rectangle-3" fill="#333333" stroke="none" stroke-width="1px"></path><path d="M10.5,11 L13.5,11 L13.5,11 C13.7761424,11 14,11.2238576 14,11.5 L14,13 L10.5,13 L10.5,13 C10.2238576,13 10,12.7761424 10,12.5 L10,11.5 L10,11.5 C10,11.2238576 10.2238576,11 10.5,11 Z" id="Rectangle-3" fill="#333333" stroke="none" stroke-width="1px"></path></g></g></svg>